<?xml version="1.0" encoding="utf-8"?>
<!-- Generator: Adobe Illustrator 27.0.0, SVG Export Plug-In . SVG Version: 6.00 Build 0)  -->
<svg version="1.1" id="Layer_1" xmlns="http://www.w3.org/2000/svg" xmlns:xlink="http://www.w3.org/1999/xlink" x="0px" y="0px"
	 viewBox="0 0 512 512" style="enable-background:new 0 0 512 512;" xml:space="preserve">
<style type="text/css">
	.st0{fill-rule:evenodd;clip-rule:evenodd;fill:url(#XMLID_00000011714841306070378650000004290701940544394640_);}
	.st1{fill-rule:evenodd;clip-rule:evenodd;fill:url(#XMLID_00000080206242183302589910000018085229289202257574_);}
	.st2{fill-rule:evenodd;clip-rule:evenodd;fill:#FFFFFF;}
	.st3{fill-rule:evenodd;clip-rule:evenodd;fill:url(#XMLID_00000003792172335640131380000009993439598466379951_);}
	.st4{fill-rule:evenodd;clip-rule:evenodd;fill:url(#XMLID_00000047020921391926017420000016333595433904947858_);}
	.st5{fill-rule:evenodd;clip-rule:evenodd;fill:url(#XMLID_00000093138942740156616310000008981984559090853282_);}
	.st6{fill-rule:evenodd;clip-rule:evenodd;fill:url(#SVGID_1_);}
	.st7{fill-rule:evenodd;clip-rule:evenodd;fill:url(#SVGID_00000162332001760134468960000010924487203239496584_);}
	.st8{fill-rule:evenodd;clip-rule:evenodd;fill:url(#XMLID_00000137109876303546421550000007764994103372513413_);}
	.st9{fill-rule:evenodd;clip-rule:evenodd;fill:url(#SVGID_00000097461765666821124730000018325248245252974737_);}
	.st10{fill-rule:evenodd;clip-rule:evenodd;fill:url(#SVGID_00000022519818302863660770000002080674413658237092_);}
	.st11{fill-rule:evenodd;clip-rule:evenodd;fill:url(#XMLID_00000109743735260314501800000016212601120602822332_);}
	.st12{fill-rule:evenodd;clip-rule:evenodd;fill:url(#XMLID_00000072280019010534743770000005236836024116438956_);}
	.st13{fill-rule:evenodd;clip-rule:evenodd;fill:url(#XMLID_00000103227730036024004690000012136621114071449228_);}
	.st14{fill-rule:evenodd;clip-rule:evenodd;fill:url(#XMLID_00000157266215917086729830000014570731616593072528_);}
	.st15{fill-rule:evenodd;clip-rule:evenodd;fill:url(#SVGID_00000080884699871553014160000008479141252324643263_);}
	.st16{fill-rule:evenodd;clip-rule:evenodd;fill:url(#SVGID_00000072264087569799529720000009549800993095712905_);}
	.st17{fill-rule:evenodd;clip-rule:evenodd;fill:url(#SVGID_00000094592176207494996150000008348669363304169877_);}
	.st18{fill-rule:evenodd;clip-rule:evenodd;fill:url(#SVGID_00000034076127020199525480000004893006369246379425_);}
	.st19{fill-rule:evenodd;clip-rule:evenodd;fill:url(#XMLID_00000130637720597820516020000001265249975832766082_);}
	.st20{fill-rule:evenodd;clip-rule:evenodd;fill:url(#XMLID_00000078040280229198868590000004198479183283298724_);}
	.st21{fill-rule:evenodd;clip-rule:evenodd;fill:url(#XMLID_00000150076848789444258400000014876148408850287252_);}
	.st22{fill-rule:evenodd;clip-rule:evenodd;fill:url(#XMLID_00000157303587572176475040000013930769816901492910_);}
	.st23{fill-rule:evenodd;clip-rule:evenodd;fill:url(#SVGID_00000004538808513330570890000007317345628059890306_);}
	.st24{fill-rule:evenodd;clip-rule:evenodd;fill:url(#SVGID_00000014599829359883951010000011758151213035993015_);}
	.st25{fill-rule:evenodd;clip-rule:evenodd;fill:url(#SVGID_00000048460305471351946670000000914396522796267158_);}
	.st26{fill-rule:evenodd;clip-rule:evenodd;fill:url(#SVGID_00000038411620693970390720000003125750550272692879_);}
	.st27{fill-rule:evenodd;clip-rule:evenodd;fill:url(#XMLID_00000179626273262583797030000011712297931547285912_);}
	.st28{fill-rule:evenodd;clip-rule:evenodd;fill:url(#XMLID_00000000928584917979314580000001676864811296819342_);}
	.st29{fill-rule:evenodd;clip-rule:evenodd;fill:url(#XMLID_00000092443952542965792900000015119406227608278973_);}
	.st30{fill-rule:evenodd;clip-rule:evenodd;fill:url(#XMLID_00000015319264367921488330000005654893284456400544_);}
	.st31{fill-rule:evenodd;clip-rule:evenodd;fill:url(#SVGID_00000011031094826565187600000000623576527706838671_);}
	.st32{fill-rule:evenodd;clip-rule:evenodd;fill:url(#SVGID_00000075859415642333588220000014606505603923283079_);}
	.st33{fill-rule:evenodd;clip-rule:evenodd;fill:url(#SVGID_00000108991116729563650770000013078305775946473088_);}
	.st34{fill-rule:evenodd;clip-rule:evenodd;fill:url(#SVGID_00000076564983089737494580000015150320445373606583_);}
	.st35{fill-rule:evenodd;clip-rule:evenodd;fill:#231F20;}
</style>
<g>
	<circle id="XMLID_96_" class="st35" cx="256" cy="256" r="182.6"/>
	<path id="XMLID_89_" class="st2" d="M208.7,153.6h94.5c30.4,0,55.3,25,55.3,55.3v94c0,30.4-25,55.3-55.3,55.3h-94.5
		c-30.4,0-55.3-25-55.3-55.3v-94C153.4,178.6,178.4,153.6,208.7,153.6L208.7,153.6z M311.1,189.4L311.1,189.4
		c6.4,0,11.8,5.4,11.8,11.8l0,0c0,6.4-5.4,11.8-11.8,11.8l0,0c-6.9,0-11.8-5.4-11.8-11.8l0,0C299.3,194.8,304.2,189.4,311.1,189.4
		L311.1,189.4z M255.8,200.2h0.5c30.4,0,55.8,25.5,55.8,55.8l0,0c0,30.9-25.5,55.8-55.8,55.8h-0.5c-30.4,0-55.3-25-55.3-55.8l0,0
		C200.4,225.6,225.4,200.2,255.8,200.2L255.8,200.2z M255.8,219.3h0.5c20.1,0,36.7,16.7,36.7,36.7l0,0c0,20.6-16.7,37.2-36.7,37.2
		h-0.5c-20.1,0-36.7-16.7-36.7-37.2l0,0C219,235.9,235.7,219.3,255.8,219.3L255.8,219.3z M209.2,171.3h93.5
		c21.1,0,38.2,17.1,38.2,38.2v93.1c0,21.1-17.1,38.2-38.2,38.2h-93.5c-21.1,0-38.2-17.1-38.2-38.2v-93.1
		C171,188.4,188.2,171.3,209.2,171.3L209.2,171.3z"/>
</g>
</svg>
